<?xml version="1.0" standalone="no"?><!DOCTYPE svg PUBLIC "-//W3C//DTD SVG 1.1//EN" "http://www.w3.org/Graphics/SVG/1.1/DTD/svg11.dtd"><svg class="icon" width="128px" height="128.00px" viewBox="0 0 1024 1024" version="1.1" xmlns="http://www.w3.org/2000/svg"><path d="M512 153.6C314.368 153.6 153.6 260.7616 153.6 392.5504c0 89.2928 71.424 168.704 187.7504 210.176v88.6784l-6.3488 1.536c-18.3808 4.5568-37.376 9.216-51.0976 15.0528-25.1392 10.752-44.544 30.72-54.784 56.1152a102.4 102.4 0 0 0 135.4752 132.096 321.024 321.024 0 0 1 62.8224-18.944c3.5328 5.4784 7.4752 10.5472 11.9296 15.1552 19.1488 19.6096 45.6704 29.184 72.6528 29.184s53.504-9.5744 72.6528-29.184c3.6864-3.84 7.0144-8.0896 10.0864-12.544 15.9744 3.9936 31.232 8.96 45.2096 15.36a102.5536 102.5536 0 0 0 135.8336-50.3296 102.5536 102.5536 0 0 0-50.3808-135.7824c-9.984-4.608-24.5248-8.192-38.5536-11.5712l-4.1472-1.024v-93.7472C798.976 561.2544 870.4 481.792 870.4 392.5504 870.4 260.7616 709.632 153.6 512 153.6z m0 51.2c169.3696 0 307.2 84.224 307.2 187.7504 0 61.7472-52.6336 120.3712-136.6528 155.2384 0.6144-60.2624-30.5664-121.1392-93.7472-121.1392-35.9424 0-61.4912 19.7632-76.8 47.872-15.3088-28.16-40.8576-47.872-76.8-47.872-63.1808 0-94.3616 60.8768-93.7472 121.1392C257.4336 513.024 204.8 454.2976 204.8 392.5504 204.8 289.024 342.6304 204.8 512 204.8zM452.2496 256a25.6 25.6 0 1 0 0 51.2 25.6 25.6 0 0 0 0-51.2z m-76.8 17.0496a17.0496 17.0496 0 1 0 0 34.1504 17.0496 17.0496 0 0 0 0-34.1504z m51.712 89.4976c-34.5088 0.512-60.16 15.1552-60.16 15.1552a17.1008 17.1008 0 1 0 16.896 29.696s42.8032-24.4224 85.504 0a17.1008 17.1008 0 1 0 16.896-29.696 113.664 113.664 0 0 0-59.0848-15.1552z m170.7008 0c-34.5088 0.512-60.2112 15.1552-60.2112 15.1552a17.1008 17.1008 0 1 0 16.9472 29.696s42.8032-24.4224 85.504 0a17.1008 17.1008 0 1 0 16.896-29.696 113.664 113.664 0 0 0-59.136-15.1552zM435.2 460.8c28.8256 0 46.8992 22.6304 54.8864 51.2H380.3136c7.9872-28.5696 26.0608-51.2 54.8864-51.2z m153.6 0c28.8768 0 47.1552 22.528 55.0912 51.2h-110.1824c7.936-28.672 26.2144-51.2 55.0912-51.2z m-213.3504 85.3504H409.6c0 18.8416 7.68 34.0992 17.0496 34.0992 9.4208 0 17.1008-15.2576 17.1008-34.0992h51.2c0 14.0288-2.3552 27.904-6.656 40.448-12.0832 6.8608-20.8384 18.3808-27.904 29.7984-2.2528 3.584-4.3008 7.4752-6.3488 11.3664a49.2032 49.2032 0 0 1-18.8416 3.6864c-39.8336 0-59.7504-42.6496-59.7504-85.2992z m153.6 0h51.2c0 18.8416 7.68 34.0992 17.1008 34.0992 9.4208 0 17.0496-15.2576 17.0496-34.0992h34.1504c0 42.6496-19.968 85.2992-59.7504 85.2992a49.2032 49.2032 0 0 1-18.8416-3.6864 181.5552 181.5552 0 0 0-6.3488-11.3664c-7.0656-11.4176-15.872-22.9376-27.8528-29.8496a125.2352 125.2352 0 0 1-6.656-40.448zM512 633.344c1.6896 1.536 4.6592 4.4544 8.192 10.0864 7.2704 11.7248 15.1552 30.5152 21.7088 51.3024 13.1072 41.6256 21.2992 92.8256 21.2992 115.9168 0 23.0912-6.5536 37.12-15.2576 46.0288-8.6528 8.9088-20.48 13.7216-35.9424 13.7216-15.4112 0-27.2896-4.8128-35.9424-13.7216-8.704-8.9088-15.2576-22.9376-15.2576-46.0288 0-23.04 8.192-74.2912 21.2992-115.9168 6.5536-20.7872 14.4384-39.5776 21.7088-51.3024a45.8752 45.8752 0 0 1 8.192-10.0864z m-119.4496 20.992c12.0832 7.0656 26.2656 11.264 42.6496 11.264 0.9216 0 1.792-0.1536 2.7136-0.1536-1.5872 4.608-3.1744 9.216-4.608 13.9264-8.2432 26.0608-14.3872 53.1968-18.432 78.1824a456.9088 456.9088 0 0 0-97.3312 28.928 17.0496 17.0496 0 1 0 13.4656 31.3344 418.4576 418.4576 0 0 1 79.616-24.6784c-0.4096 5.9904-1.024 12.288-1.024 17.5104 0 5.9904 0.512 11.776 1.1264 17.408-23.04 5.12-45.312 12.1344-66.304 21.1456a51.2 51.2 0 0 1-40.3456-94.1568c9.8304-4.1984 27.4944-8.4992 43.1104-12.3392 10.3424-2.56 20.0704-4.9152 27.2896-7.168l18.0736-5.5808V654.336z m238.8992 0v79.6672l16.9984 6.0416c7.0144 2.56 16.384 4.7616 26.2656 7.168 10.5984 2.6112 23.7568 5.8368 29.3376 8.3968a51.2512 51.2512 0 0 1-42.7008 93.0816 317.0304 317.0304 0 0 0-48.4864-17.3056c0.9728-6.656 1.536-13.568 1.536-20.736 0-4.3008-0.512-9.5744-0.8192-14.4384 21.7088 5.4272 42.5984 12.544 61.952 21.4016a17.0496 17.0496 0 1 0 14.2848-30.976 397.568 397.568 0 0 0-80.2816-26.4192 567.04 567.04 0 0 0-23.4496-94.7712c0.9216 0 1.792 0.1536 2.7136 0.1536 16.384 0 30.5664-4.1984 42.6496-11.264z" fill="#1195db" /></svg>